<svg version="1.1" id="Layer_1" xmlns="http://www.w3.org/2000/svg" xmlns:xlink="http://www.w3.org/1999/xlink" x="0px" y="0px"
	 width="100%" viewBox="0 0 512 512" enable-background="new 0 0 512 512" xml:space="preserve">
<path fill="#AAFFFF" opacity="1.000000" stroke="none" 
	d="
M1.000000,476.000000 
	C1.000000,330.309265 1.000000,184.618515 1.311672,38.776688 
	C1.998503,38.303265 2.596082,38.048195 2.716835,37.648914 
	C8.056602,19.992704 19.418539,8.339326 37.108402,2.890584 
	C37.557140,2.752367 37.709446,1.651767 38.000000,1.000000 
	C183.690750,1.000000 329.381500,1.000000 475.223297,1.311672 
	C475.696686,1.998496 475.951752,2.596046 476.351044,2.716810 
	C494.007294,8.056560 505.660645,19.418552 511.109375,37.108437 
	C511.247589,37.557163 512.348267,37.709450 513.000000,38.000000 
	C513.000000,183.690750 513.000000,329.381500 512.688354,475.223297 
	C512.001526,475.696686 511.403900,475.951752 511.283142,476.351013 
	C505.943329,494.007263 494.581451,505.660675 476.891479,511.109436 
	C476.442780,511.247620 476.290497,512.348206 476.000000,513.000000 
	C330.309265,513.000000 184.618515,513.000000 38.776695,512.688354 
	C38.303284,512.001465 38.048210,511.403931 37.648933,511.283142 
	C19.992699,505.943390 8.339317,494.581451 2.890577,476.891571 
	C2.752366,476.442841 1.651770,476.290558 1.000000,476.000000 
M247.122406,195.410416 
	C238.546127,176.247772 223.786270,163.908188 203.961365,158.071350 
	C162.436295,145.845566 121.670151,149.344513 81.790077,165.474503 
	C68.131386,170.998947 59.373619,180.998550 54.861126,195.069778 
	C44.631603,226.968353 42.686695,259.481903 48.379192,292.291351 
	C54.154430,325.577698 72.979446,348.365784 106.018074,357.638794 
	C134.973663,365.765839 164.306213,365.733917 193.409164,358.134460 
	C223.083771,350.385773 242.186096,331.385406 251.052429,302.052063 
	C256.512512,283.988037 257.846680,265.461029 257.365814,246.715118 
	C256.918365,229.274673 254.608521,212.212769 247.122406,195.410416 
M445.893158,166.575363 
	C438.857391,160.712234 430.887939,156.476532 421.921906,154.853241 
	C412.295776,153.110458 402.538696,151.549515 392.787689,151.147278 
	C370.410797,150.224182 348.246735,153.097214 326.179108,156.509308 
	C315.218140,158.204102 304.313751,160.264984 292.800842,162.261337 
	C294.585449,179.540329 296.303864,196.178284 298.059265,213.174438 
	C300.769379,213.038101 302.733063,212.993683 304.687103,212.832565 
	C323.268066,211.300491 341.834808,209.565750 360.433014,208.287003 
	C368.558136,207.728333 376.747498,208.001373 384.905884,208.082199 
	C387.964813,208.112488 391.281830,208.659149 391.611603,212.577988 
	C392.373260,221.629059 392.844482,230.704575 393.447571,239.986023 
	C390.781799,240.122482 389.143494,240.219421 387.503998,240.288330 
	C365.212250,241.225220 342.855164,241.800354 321.049133,247.132950 
	C300.060333,252.265717 283.911255,263.899780 278.560364,285.601257 
	C273.077576,307.837463 276.998901,328.675262 294.065369,345.512878 
	C315.661011,366.818970 368.704651,374.537689 395.288727,336.445465 
	C396.579498,334.596008 397.973145,332.818390 399.691864,330.505371 
	C401.848328,338.827789 404.000641,346.345154 405.672363,353.967926 
	C406.356262,357.086456 407.665497,357.930786 410.711884,357.903381 
	C426.203766,357.763977 441.697571,357.839264 457.190704,357.839386 
	C460.979156,357.839386 464.767609,357.839386 469.003876,357.839386 
	C469.003876,355.524475 469.021118,353.739166 469.001343,351.954224 
	C468.689178,323.805939 468.426147,295.656982 468.037231,267.509735 
	C467.781952,249.034470 467.942078,230.525024 466.812927,212.098511 
	C465.750580,194.761642 460.725311,178.661301 445.893158,166.575363 
z"/>
<path fill="#000000" opacity="1.000000" stroke="none" 
	d="
M37.531342,1.000000 
	C37.709446,1.651767 37.557140,2.752367 37.108402,2.890584 
	C19.418539,8.339326 8.056602,19.992704 2.716835,37.648914 
	C2.596082,38.048195 1.998503,38.303265 1.311672,38.312801 
	C1.000000,25.740049 1.000000,13.480098 1.000000,1.000000 
	C13.020000,1.000000 25.041342,1.000000 37.531342,1.000000 
z"/>
<path fill="#000000" opacity="1.000000" stroke="none" 
	d="
M513.000000,37.531342 
	C512.348267,37.709450 511.247589,37.557163 511.109375,37.108437 
	C505.660645,19.418552 494.007294,8.056560 476.351044,2.716810 
	C475.951752,2.596046 475.696686,1.998496 475.687195,1.311672 
	C488.259949,1.000000 500.519897,1.000000 513.000000,1.000000 
	C513.000000,13.020000 513.000000,25.041342 513.000000,37.531342 
z"/>
<path fill="#000000" opacity="1.000000" stroke="none" 
	d="
M1.000000,476.468658 
	C1.651770,476.290558 2.752366,476.442841 2.890577,476.891571 
	C8.339317,494.581451 19.992699,505.943390 37.648933,511.283142 
	C38.048210,511.403931 38.303284,512.001465 38.312809,512.688354 
	C25.740049,513.000000 13.480098,513.000000 1.000000,513.000000 
	C1.000000,500.980011 1.000000,488.958649 1.000000,476.468658 
z"/>
<path fill="#000000" opacity="1.000000" stroke="none" 
	d="
M476.468628,513.000000 
	C476.290497,512.348206 476.442780,511.247620 476.891479,511.109436 
	C494.581451,505.660675 505.943329,494.007263 511.283142,476.351013 
	C511.403900,475.951752 512.001526,475.696686 512.688354,475.687195 
	C513.000000,488.259949 513.000000,500.519897 513.000000,513.000000 
	C500.980011,513.000000 488.958649,513.000000 476.468628,513.000000 
z"/>
<path fill="#555656" opacity="1.000000" stroke="none" 
	d="
M247.290039,195.750732 
	C254.608521,212.212769 256.918365,229.274673 257.365814,246.715118 
	C257.846680,265.461029 256.512512,283.988037 251.052429,302.052063 
	C242.186096,331.385406 223.083771,350.385773 193.409164,358.134460 
	C164.306213,365.733917 134.973663,365.765839 106.018074,357.638794 
	C72.979446,348.365784 54.154430,325.577698 48.379192,292.291351 
	C42.686695,259.481903 44.631603,226.968353 54.861126,195.069778 
	C59.373619,180.998550 68.131386,170.998947 81.790077,165.474503 
	C121.670151,149.344513 162.436295,145.845566 203.961365,158.071350 
	C223.786270,163.908188 238.546127,176.247772 247.290039,195.750732 
M127.938644,209.642029 
	C122.527534,231.049973 122.090508,252.831161 123.632530,274.661652 
	C124.155022,282.058563 125.540909,289.565338 127.769524,296.631683 
	C131.286316,307.782501 140.070251,312.478241 153.940598,311.945190 
	C166.072540,311.478943 173.097794,306.220276 176.016418,294.781769 
	C180.096100,278.792938 180.206512,262.435150 179.360382,246.116547 
	C178.888504,237.015808 178.063385,227.797089 176.026520,218.947052 
	C173.260468,206.928741 166.176483,201.691498 153.849258,201.206131 
	C148.384750,200.990952 142.885513,201.647781 137.402466,201.917343 
	C132.746353,202.146225 129.536835,204.311569 127.938644,209.642029 
z"/>
<path fill="#555656" opacity="1.000000" stroke="none" 
	d="
M446.164307,166.807068 
	C460.725311,178.661301 465.750580,194.761642 466.812927,212.098511 
	C467.942078,230.525024 467.781952,249.034470 468.037231,267.509735 
	C468.426147,295.656982 468.689178,323.805939 469.001343,351.954224 
	C469.021118,353.739166 469.003876,355.524475 469.003876,357.839386 
	C464.767609,357.839386 460.979156,357.839386 457.190704,357.839386 
	C441.697571,357.839264 426.203766,357.763977 410.711884,357.903381 
	C407.665497,357.930786 406.356262,357.086456 405.672363,353.967926 
	C404.000641,346.345154 401.848328,338.827789 399.691864,330.505371 
	C397.973145,332.818390 396.579498,334.596008 395.288727,336.445465 
	C368.704651,374.537689 315.661011,366.818970 294.065369,345.512878 
	C276.998901,328.675262 273.077576,307.837463 278.560364,285.601257 
	C283.911255,263.899780 300.060333,252.265717 321.049133,247.132950 
	C342.855164,241.800354 365.212250,241.225220 387.503998,240.288330 
	C389.143494,240.219421 390.781799,240.122482 393.447571,239.986023 
	C392.844482,230.704575 392.373260,221.629059 391.611603,212.577988 
	C391.281830,208.659149 387.964813,208.112488 384.905884,208.082199 
	C376.747498,208.001373 368.558136,207.728333 360.433014,208.287003 
	C341.834808,209.565750 323.268066,211.300491 304.687103,212.832565 
	C302.733063,212.993683 300.769379,213.038101 298.059265,213.174438 
	C296.303864,196.178284 294.585449,179.540329 292.800842,162.261337 
	C304.313751,160.264984 315.218140,158.204102 326.179108,156.509308 
	C348.246735,153.097214 370.410797,150.224182 392.787689,151.147278 
	C402.538696,151.549515 412.295776,153.110458 421.921906,154.853241 
	C430.887939,156.476532 438.857391,160.712234 446.164307,166.807068 
M351.428375,306.806549 
	C354.702057,308.874390 357.728607,311.925842 361.296631,312.822235 
	C371.280212,315.330475 381.102936,313.000153 390.709320,310.018829 
	C391.605988,309.740509 392.885864,308.620941 392.896362,307.876648 
	C393.040985,297.627136 392.994019,287.374908 392.994019,277.556885 
	C383.504913,277.556885 374.655457,276.950989 365.920624,277.693787 
	C351.538177,278.916840 346.980286,285.409180 349.299744,299.908600 
	C349.637543,302.020020 350.469849,304.052338 351.428375,306.806549 
z"/>
<path fill="#A9FEFE" opacity="1.000000" stroke="none" 
	d="
M128.037537,209.260605 
	C129.536835,204.311569 132.746353,202.146225 137.402466,201.917343 
	C142.885513,201.647781 148.384750,200.990952 153.849258,201.206131 
	C166.176483,201.691498 173.260468,206.928741 176.026520,218.947052 
	C178.063385,227.797089 178.888504,237.015808 179.360382,246.116547 
	C180.206512,262.435150 180.096100,278.792938 176.016418,294.781769 
	C173.097794,306.220276 166.072540,311.478943 153.940598,311.945190 
	C140.070251,312.478241 131.286316,307.782501 127.769524,296.631683 
	C125.540909,289.565338 124.155022,282.058563 123.632530,274.661652 
	C122.090508,252.831161 122.527534,231.049973 128.037537,209.260605 
z"/>
<path fill="#A9FDFD" opacity="1.000000" stroke="none" 
	d="
M351.250854,306.463928 
	C350.469849,304.052338 349.637543,302.020020 349.299744,299.908600 
	C346.980286,285.409180 351.538177,278.916840 365.920624,277.693787 
	C374.655457,276.950989 383.504913,277.556885 392.994019,277.556885 
	C392.994019,287.374908 393.040985,297.627136 392.896362,307.876648 
	C392.885864,308.620941 391.605988,309.740509 390.709320,310.018829 
	C381.102936,313.000153 371.280212,315.330475 361.296631,312.822235 
	C357.728607,311.925842 354.702057,308.874390 351.250854,306.463928 
z"/>
</svg>